<svg width="18" height="19" viewBox="0 0 18 19" fill="none" xmlns="http://www.w3.org/2000/svg">
<path d="M16.7005 6.92918C17.226 7.42551 17.226 8.22429 16.7005 8.72061C16.4377 8.96877 16.0969 9.09286 15.7521 9.09286C15.4072 9.09286 15.0664 8.96877 14.8037 8.72061L10.1479 4.32347L10.1479 17.732C10.1479 18.43 9.54843 19 8.8053 19C8.06629 19 7.46276 18.4339 7.46276 17.732L7.46276 4.32347L2.81517 8.72061C2.28965 9.21694 1.44388 9.21694 0.918358 8.72061C0.392836 8.22429 0.392836 7.42551 0.918358 6.92918L7.86101 0.372244C8.11145 0.135714 8.45222 0 8.80941 0C9.1666 0 9.50737 0.131836 9.75781 0.372244L16.7005 6.92918Z" fill="black"/>
</svg>
