<svg width="17" height="19" viewBox="0 0 17 19" fill="none" xmlns="http://www.w3.org/2000/svg">
<path d="M0.394142 12.0708C-0.131381 11.5745 -0.131381 10.7757 0.394142 10.2794C0.656903 10.0312 0.997672 9.90714 1.34255 9.90714C1.68742 9.90714 2.02819 10.0312 2.29095 10.2794L6.94675 14.6765V1.26796C6.94675 0.57 7.54618 0 8.2893 0C9.02832 0 9.63185 0.566122 9.63185 1.26796V14.6765L14.2794 10.2794C14.805 9.78306 15.6507 9.78306 16.1762 10.2794C16.7018 10.7757 16.7018 11.5745 16.1762 12.0708L9.2336 18.6278C8.98315 18.8643 8.64239 19 8.28519 19C7.928 19 7.58723 18.8682 7.33679 18.6278L0.394142 12.0708Z" fill="black"/>
</svg>
