<svg width="22" height="22" viewBox="0 0 22 22" fill="none" xmlns="http://www.w3.org/2000/svg">
<path d="M20.3059 2.75232H1.69409C0.761181 2.75232 0 3.5135 0 4.44641V17.5536C0 18.4865 0.761181 19.2477 1.69409 19.2477H20.3059C21.2388 19.2477 22 18.4865 22 17.5536V4.44641C22 3.5135 21.2388 2.75232 20.3059 2.75232ZM20.0599 4.00548L11.116 11.6544L2.17215 4.00548H20.0599ZM20.7468 17.5536C20.7468 17.7949 20.5473 17.9945 20.3059 17.9945H1.69409C1.45274 17.9945 1.25316 17.7949 1.25316 17.5536V4.86877L10.7076 12.954C10.7122 12.9586 10.7215 12.9633 10.7262 12.9679C10.7308 12.9726 10.7401 12.9772 10.7447 12.9819C10.7587 12.9911 10.7679 13.0004 10.7819 13.0051C10.7865 13.0097 10.7911 13.0097 10.7958 13.0143C10.8143 13.0236 10.8329 13.0329 10.8515 13.0422C10.8561 13.0422 10.8608 13.0468 10.8654 13.0468C10.8793 13.0515 10.8932 13.0608 10.9118 13.0654C10.9165 13.0654 10.9257 13.07 10.9304 13.07C10.9443 13.0747 10.9582 13.0793 10.9722 13.0793C10.9768 13.0793 10.9861 13.084 10.9907 13.084C11.0046 13.0886 11.0232 13.0886 11.0371 13.0932C11.0418 13.0932 11.0464 13.0932 11.0511 13.0932C11.0696 13.0932 11.0928 13.0979 11.1114 13.0979C11.13 13.0979 11.1532 13.0979 11.1717 13.0932C11.1764 13.0932 11.181 13.0932 11.1857 13.0932C11.1996 13.0932 11.2181 13.0886 11.2321 13.084C11.2367 13.084 11.246 13.0793 11.2506 13.0793C11.2646 13.0747 11.2785 13.07 11.2924 13.07C11.297 13.07 11.3063 13.0654 11.311 13.0654C11.3249 13.0608 11.3388 13.0561 11.3574 13.0468C11.362 13.0468 11.3667 13.0422 11.3713 13.0422C11.3899 13.0329 11.4084 13.0236 11.427 13.0143C11.4316 13.0097 11.4363 13.0097 11.4409 13.0051C11.4549 12.9958 11.4641 12.9911 11.4781 12.9819C11.4827 12.9772 11.492 12.9726 11.4966 12.9679C11.5013 12.9633 11.5105 12.9586 11.5152 12.954L20.7468 5.06835V17.5536Z" fill="black"/>
</svg>
