<svg width="20" height="18" viewBox="0 0 20 18" fill="none" xmlns="http://www.w3.org/2000/svg">
<g clip-path="url(#clip0_2_634)">
<mask id="path-1-inside-1_2_634" fill="white">
<path d="M19.0489 16.7116L13.6911 11.5434C14.7473 10.3224 15.3826 8.762 15.3826 7.05773C15.3826 3.16963 12.0722 0.00823975 8.00025 0.00823975C3.92828 0.00823975 0.610229 3.17332 0.610229 7.06142C0.610229 10.9495 3.92062 14.1109 7.9926 14.1109C9.72242 14.1109 11.3145 13.5391 12.5774 12.5837L17.9544 17.7666C18.2682 18.0691 18.7351 18.0691 19.0489 17.7666C19.3627 17.4641 19.3627 17.0141 19.0489 16.7116ZM2.17932 7.06142C2.17932 4.00701 4.78936 1.52438 7.9926 1.52438C11.1958 1.52438 13.8059 4.00701 13.8059 7.06142C13.8059 10.1158 11.1958 12.5985 7.9926 12.5985C4.78936 12.5985 2.17932 10.1121 2.17932 7.06142Z"/>
</mask>
<path d="M19.0489 16.7116L13.6911 11.5434C14.7473 10.3224 15.3826 8.762 15.3826 7.05773C15.3826 3.16963 12.0722 0.00823975 8.00025 0.00823975C3.92828 0.00823975 0.610229 3.17332 0.610229 7.06142C0.610229 10.9495 3.92062 14.1109 7.9926 14.1109C9.72242 14.1109 11.3145 13.5391 12.5774 12.5837L17.9544 17.7666C18.2682 18.0691 18.7351 18.0691 19.0489 17.7666C19.3627 17.4641 19.3627 17.0141 19.0489 16.7116ZM2.17932 7.06142C2.17932 4.00701 4.78936 1.52438 7.9926 1.52438C11.1958 1.52438 13.8059 4.00701 13.8059 7.06142C13.8059 10.1158 11.1958 12.5985 7.9926 12.5985C4.78936 12.5985 2.17932 10.1121 2.17932 7.06142Z" fill="black"/>
<path d="M19.0489 16.7116L17.6604 18.1511L17.6609 18.1516L19.0489 16.7116ZM13.6911 11.5434L12.1785 10.235L10.9391 11.6677L12.3026 12.9829L13.6911 11.5434ZM12.5774 12.5837L13.9654 11.1437L12.7343 9.95713L11.3708 10.9887L12.5774 12.5837ZM20.4374 15.2721L15.0796 10.104L12.3026 12.9829L17.6604 18.1511L20.4374 15.2721ZM15.2036 12.8519C16.5539 11.291 17.3826 9.27282 17.3826 7.05773H13.3826C13.3826 8.25119 12.9407 9.35381 12.1785 10.235L15.2036 12.8519ZM17.3826 7.05773C17.3826 1.97915 13.0889 -1.99176 8.00025 -1.99176V2.00824C11.0556 2.00824 13.3826 4.36011 13.3826 7.05773H17.3826ZM8.00025 -1.99176C2.91299 -1.99176 -1.38977 1.98153 -1.38977 7.06142H2.61023C2.61023 4.3651 4.94357 2.00824 8.00025 2.00824V-1.99176ZM-1.38977 7.06142C-1.38977 12.14 2.90397 16.1109 7.9926 16.1109V12.1109C4.93728 12.1109 2.61023 9.75904 2.61023 7.06142H-1.38977ZM7.9926 16.1109C10.1685 16.1109 12.1822 15.3905 13.784 14.1787L11.3708 10.9887C10.4468 11.6877 9.27637 12.1109 7.9926 12.1109V16.1109ZM11.1894 14.0237L16.5664 19.2066L19.3424 16.3267L13.9654 11.1437L11.1894 14.0237ZM16.5664 19.2066C17.6549 20.2558 19.3484 20.2558 20.4369 19.2066L17.6609 16.3267C17.8697 16.1254 18.1695 15.9935 18.5017 15.9935C18.8339 15.9935 19.1336 16.1254 19.3424 16.3267L16.5664 19.2066ZM20.4369 19.2066C21.5667 18.1175 21.5667 16.3607 20.4369 15.2716L17.6609 18.1516C17.4508 17.949 17.2843 17.6266 17.2843 17.2391C17.2843 16.8516 17.4508 16.5292 17.6609 16.3267L20.4369 19.2066ZM4.17932 7.06142C4.17932 5.20299 5.80024 3.52438 7.9926 3.52438V-0.475622C3.77848 -0.475622 0.179318 2.81103 0.179318 7.06142H4.17932ZM7.9926 3.52438C10.1849 3.52438 11.8059 5.20299 11.8059 7.06142H15.8059C15.8059 2.81103 12.2067 -0.475622 7.9926 -0.475622V3.52438ZM11.8059 7.06142C11.8059 8.91985 10.1849 10.5985 7.9926 10.5985V14.5985C12.2067 14.5985 15.8059 11.3118 15.8059 7.06142H11.8059ZM7.9926 10.5985C5.80113 10.5985 4.17932 8.917 4.17932 7.06142H0.179318C0.179318 11.3073 3.77759 14.5985 7.9926 14.5985V10.5985Z" fill="black" mask="url(#path-1-inside-1_2_634)"/>
</g>
<defs>
<clipPath id="clip0_2_634">
<rect width="18.6741" height="18" fill="white" transform="translate(0.610229)"/>
</clipPath>
</defs>
</svg>
